MoBL_ARMS_module2_4_allmuscles_wrist_states		
version=1		
nRows=280		
nColumns=3		
inDegrees=yes		
		
# SIMM Motion File Header:		
name MoBL_ARMS_module2_4_allmuscles_wrist_states		
datacolumns 3		
datarows 280		
otherdata 1		
range 4.893877023 5.367483369		
endheader		
time	deviation	flexion
4.893877023	20.96546109	3.98249365
4.895574537	20.96599969	3.967349101
4.897272051	20.96661613	3.952696624
4.898969565	20.96729293	3.938538117
4.900667079	20.96800995	3.924879804
4.902364592	20.96874781	3.911731366
4.904062106	20.96949031	3.899104652
4.90575962	20.97022552	3.887011678
4.907457134	20.97094648	3.875462672
4.909154648	20.97165059	3.864464688
4.910852161	20.97233761	3.854020791
4.912549675	20.97300764	3.844129764
4.914247189	20.97365988	3.834786632
4.915944703	20.97429161	3.825984448
4.917642216	20.97489816	3.81771609
4.91933973	20.97547355	3.809975623
4.921037244	20.97601181	3.802759638
4.922734758	20.97650812	3.796068086
4.924432272	20.9769597	3.789903966
4.926129785	20.97736685	3.784271499
4.927827299	20.97773322	3.779174265
4.929524813	20.97806509	3.774613754
4.931222327	20.97837035	3.770587996
4.93291984	20.97865749	3.767090737
4.934617354	20.97893496	3.764111916
4.936314868	20.97921147	3.761640006
4.938012382	20.97949952	3.759666353
4.939709896	20.97982296	3.758192004
4.941407409	20.9802242	3.757234989
4.943104923	20.98076281	3.756831907
4.944802437	20.98150452	3.75703153
4.946499951	20.98250665	3.757883435
4.948197465	20.98381007	3.759429881
4.949894978	20.98544142	3.761700373
4.951592492	20.9874308	3.76470734
4.953290006	20.98982599	3.768443499
4.95498752	20.99268727	3.772883755
4.956685033	20.99606844	3.777992253
4.958382547	21.00000413	3.783729597
4.960080061	21.00450765	3.790060605
4.961777575	21.00957538	3.796961765
4.963475089	21.01519247	3.804424853
4.965172602	21.02135072	3.812452872
4.966870116	21.02807112	3.821049596
4.96856763	21.03540926	3.830209209
4.970265144	21.04343147	3.839906722
4.971962657	21.05218151	3.85009318
4.973660171	21.0616665	3.860698863
4.975357685	21.07186397	3.871642857
4.977055199	21.08273696	3.882844228
4.978752713	21.09424395	3.894229798
4.980450226	21.10635002	3.905736961
4.98214774	21.11903531	3.917312604
4.983845254	21.13229378	3.928909936
4.985542768	21.14611632	3.940482338
4.987240282	21.16047362	3.951978945
4.988937795	21.17531065	3.963344748
4.990635309	21.1905471	3.974523245
4.992332823	21.20608209	3.985460354
4.994030337	21.22180391	3.996108906
4.99572785	21.23760578	4.0064331
4.997425364	21.2533984	4.016410627
4.999122878	21.2691144	4.026032329
5.000820392	21.28470533	4.035301074
5.002517906	21.30013623	4.044230045
5.004215419	21.31537872	4.052840075
5.005912933	21.33040109	4.061155923
5.007610447	21.34516528	4.069204236
5.009307961	21.35963042	4.077013015
5.011005474	21.37375645	4.084611133
5.012702988	21.38750681	4.092027871
5.014400502	21.40085121	4.099293026
5.016098016	21.41376931	4.106437904
5.01779553	21.42625201	4.113495681
5.019493043	21.43829919	4.120500169
5.021190557	21.44991508	4.127483223
5.022888071	21.46110465	4.134472837
5.024585585	21.47187192	4.14149224
5.026283099	21.48221921	4.148559538
5.027980612	21.49214756	4.155688047
5.029678126	21.5016591	4.162887966
5.03137564	21.51076104	4.170169165
5.033073154	21.51946713	4.177542707
5.034770667	21.52779611	4.18502047
5.036468181	21.53576843	4.192613621
5.038165695	21.54340379	4.200331396
5.039863209	21.5507188	4.208179759
5.041560723	21.55772485	4.216159987
5.043258236	21.56442823	4.224268572
5.04495575	21.57083308	4.232499003
5.046653264	21.57694538	4.240844451
5.048350778	21.58277465	4.249299429
5.050048291	21.58833459	4.257861244
5.051745805	21.593644	4.266531082
5.053443319	21.59872527	4.275313781
5.055140833	21.60360103	4.284216099
5.056838347	21.60829091	4.293244559
5.05853586	21.61281002	4.302404175
5.060233374	21.61716739	4.311696954
5.061930888	21.62136515	4.32112065
5.063628402	21.62540007	4.330669069
5.065325916	21.62926798	4.340334644
5.067023429	21.63296799	4.350111377
5.068720943	21.6365041	4.359996342
5.070418457	21.63988788	4.36999183
5.072115971	21.64314007	4.380106912
5.073813484	21.64628802	4.390356412
5.075510998	21.64935879	4.400756625
5.077208512	21.65237353	4.411321165
5.078906026	21.6553469	4.422058742
5.08060354	21.65828276	4.432970102
5.082301053	21.66117123	4.444046453
5.083998567	21.66399382	4.455271569
5.085696081	21.66674117	4.46662839
5.087393595	21.66942877	4.478103788
5.089091109	21.67209901	4.489688325
5.090788622	21.67481445	4.501372317
5.092486136	21.67764791	4.513141355
5.09418365	21.68066929	4.52497254
5.095881164	21.68392586	4.536832245
5.097578677	21.68743102	4.54867759
5.099276191	21.69116863	4.560460834
5.100973705	21.69511113	4.572133958
5.102671219	21.69923523	4.583651543
5.104368733	21.70353137	4.594972586
5.106066246	21.70800981	4.606062221
5.10776376	21.71270002	4.616891222
5.109461274	21.71763753	4.627434122
5.111158788	21.72283906	4.637669164
5.112856301	21.72828878	4.647580869
5.114553815	21.73394565	4.657162958
5.116251329	21.73976569	4.666418716
5.117948843	21.74571799	4.675358942
5.119646357	21.75178939	4.683998234
5.12134387	21.75798198	4.692350467
5.123041384	21.76430708	4.700425114
5.124738898	21.77076994	4.708227286
5.126436412	21.77734857	4.71576315
5.128133926	21.78398709	4.723046998
5.129831439	21.79060929	4.730106714
5.131528953	21.79714193	4.736985696
5.133226467	21.80353008	4.743741291
5.134923981	21.80974263	4.750438337
5.136621494	21.81577123	4.757139531
5.138319008	21.82162449	4.76389793
5.140016522	21.82731384	4.770754087
5.141714036	21.83283786	4.777737757
5.14341155	21.83817652	4.784871723
5.145109063	21.84329604	4.792176467
5.146806577	21.84815902	4.799674249
5.148504091	21.85273213	4.807391365
5.150201605	21.85699305	4.815356392
5.151899118	21.86093395	4.823596068
5.153596632	21.86456117	4.83213201
5.155294146	21.8678917	4.840978551
5.15699166	21.87094852	4.850141694
5.158689174	21.87375657	4.859619076
5.160386687	21.87633907	4.869401606
5.162084201	21.87871539	4.879476036
5.163781715	21.88090075	4.889827093
5.165479229	21.8829072	4.900438305
5.167176743	21.8847449	4.911292211
5.168874256	21.88642297	4.922370566
5.17057177	21.8879506	4.933654322
5.172269284	21.88933754	4.945123577
5.173966798	21.89059417	4.956757703
5.175664311	21.89173115	4.968535769
5.177361825	21.89275912	4.980437037
5.179059339	21.89368838	4.992441439
5.180756853	21.8945287	5.004530142
5.182454367	21.89528928	5.016686014
5.18415188	21.89597844	5.028893836
5.185849394	21.89660283	5.041140315
5.187546908	21.89716679	5.053414069
5.189244422	21.89767237	5.065705659
5.190941935	21.89811947	5.078007599
5.192639449	21.89850638	5.09031435
5.194336963	21.89883091	5.10262242
5.196034477	21.89909254	5.114930647
5.197731991	21.89929371	5.127240231
5.199429504	21.89943974	5.139554582
5.201127018	21.89953807	5.151879297
5.202824532	21.89959718	5.164221995
5.204522046	21.89962538	5.176591769
5.20621956	21.89962904	5.188998263
5.207917073	21.89961191	5.201450984
5.209614587	21.89957549	5.213958908
5.211312101	21.89952046	5.226530227
5.213009615	21.89944767	5.239172206
5.214707128	21.89935904	5.251891271
5.216404642	21.89925833	5.264693306
5.218102156	21.89915136	5.277583765
5.21979967	21.89904525	5.290567395
5.221497184	21.89894727	5.303647732
5.223194697	21.89886417	5.316826891
5.224892211	21.89880125	5.330105357
5.226589725	21.89876122	5.343481516
5.228287239	21.8987444	5.356951897
5.229984752	21.89875275	5.370512247
5.231682266	21.89879634	5.38415866
5.23337978	21.89889608	5.397887874
5.235077294	21.89908247	5.411697961
5.236774808	21.89939133	5.425588832
5.238472321	21.89985857	5.439561369
5.240169835	21.90051115	5.453614708
5.241867349	21.90136008	5.467743977
5.243564863	21.90240016	5.481940148
5.245262377	21.90361188	5.4961898
5.24695989	21.90496515	5.510475166
5.248657404	21.90642539	5.524775811
5.250354918	21.9079643	5.539072236
5.252052432	21.90956836	5.553348477
5.253749945	21.91123993	5.567592276
5.255447459	21.91299369	5.581794902
5.257144973	21.91485106	5.595950602
5.258842487	21.91683399	5.610055322
5.260540001	21.91895749	5.624104957
5.262237514	21.92122531	5.638094624
5.263935028	21.92362929	5.652018741
5.265632542	21.9261508	5.665870237
5.267330056	21.92876405	5.679640276
5.26902757	21.93144092	5.693319059
5.270725083	21.9341567	5.70689717
5.272422597	21.93689368	5.720366344
5.274120111	21.93964115	5.733719796
5.275817625	21.94239224	5.746952928
5.277515138	21.94514081	5.760064132
5.279212652	21.94787972	5.773055592
5.280910166	21.95059994	5.785934424
5.28260768	21.95329176	5.798713801
5.284305194	21.95594591	5.811412642
5.286002707	21.95855136	5.824052851
5.287700221	21.96109403	5.836657083
5.289397735	21.96355683	5.849247277
5.291095249	21.96592085	5.861843595
5.292792762	21.96816809	5.874464755
5.294490276	21.97028382	5.887128522
5.29618779	21.97225756	5.89985184
5.297885304	21.97408312	5.912650745
5.299582818	21.97575915	5.925540945
5.301280331	21.97729258	5.938540883
5.302977845	21.97870298	5.951676107
5.304675359	21.9800203	5.964979312
5.306372873	21.98127776	5.978486449
5.308070387	21.98250549	5.992232709
5.3097679	21.98372341	6.006247533
5.311465414	21.9849352	6.020549716
5.313162928	21.98612938	6.035146472
5.314860442	21.98728903	6.050038073
5.316557955	21.98840381	6.065224778
5.318255469	21.98947595	6.080710827
5.319952983	21.99052421	6.096507525
5.321650497	21.99158364	6.112634803
5.323348011	21.99270181	6.12911912
5.325045524	21.99392649	6.145985798
5.326743038	21.99528866	6.163250223
5.328440552	21.9967965	6.180914427
5.330138066	21.99843946	6.198967209
5.331835579	22.00019696	6.2173861
5.333533093	22.00204733	6.236140628
5.335230607	22.0039795	6.255197442
5.336928121	22.00600082	6.27452401
5.338625635	22.00813446	6.294088504
5.340323148	22.01040679	6.313857133
5.342020662	22.01283498	6.333792229
5.343718176	22.01542114	6.35385217
5.34541569	22.01814981	6.37399139
5.347113204	22.02099016	6.394161719
5.348810717	22.02390222	6.414315276
5.350508231	22.02684564	6.434407748
5.352205745	22.02978645	6.454400634
5.353903259	22.03270021	6.474262054
5.355600772	22.03557212	6.493966428
5.357298286	22.03839534	6.513493547
5.3589958	22.04116773	6.532827092
5.360693314	22.04388642	6.551952558
5.362390828	22.04654448	6.57085603
5.364088341	22.04913013	6.589523721
5.365785855	22.05162782	6.607941751
5.367483369	22.05402128	6.626097043
